<svg width="36" height="36" viewBox="0 0 36 36" xmlns="http://www.w3.org/2000/svg"><g id="Spec" fill="none"><g id="Help-Affordance"><circle id="Oval-128" stroke="#A9A6A6" cx="18" cy="18" r="17"></circle><path d="M17.051 21.094v-.54c0-.648.123-1.203.369-1.665.246-.462.741-.915 1.485-1.359a7.37 7.37 0 0 0 .981-.657c.222-.186.372-.366.45-.54.078-.174.117-.369.117-.585 0-.384-.177-.714-.531-.99-.354-.276-.831-.414-1.431-.414-.624 0-1.131.135-1.521.405-.39.27-.627.627-.711 1.071h-2.304a4.053 4.053 0 0 1 .738-1.845c.396-.546.924-.981 1.584-1.305.66-.324 1.44-.486 2.34-.486.852 0 1.596.153 2.232.459.636.306 1.134.726 1.494 1.26.36.534.54 1.143.54 1.827 0 .66-.177 1.227-.531 1.701-.354.474-.891.933-1.611 1.377-.42.252-.729.48-.927.684-.198.204-.33.399-.396.585a1.79 1.79 0 0 0-.099.603v.414h-2.268zm1.26 4.158c-.408 0-.762-.15-1.062-.45-.3-.3-.45-.654-.45-1.062 0-.408.15-.762.45-1.062.3-.3.654-.45 1.062-.45.408 0 .762.15 1.062.45.3.3.45.654.45 1.062 0 .408-.15.762-.45 1.062-.3.3-.654.45-1.062.45z" id="?" fill="#A9A6A6"></path></g></g></svg>