<?xml version="1.0" encoding="utf-8"?>
<!-- Generator: Adobe Illustrator 16.0.0, SVG Export Plug-In . SVG Version: 6.00 Build 0)  -->
<!DOCTYPE svg PUBLIC "-//W3C//DTD SVG 1.1//EN" "http://www.w3.org/Graphics/SVG/1.1/DTD/svg11.dtd">
<svg version="1.1" id="Layer_1" xmlns="http://www.w3.org/2000/svg" xmlns:xlink="http://www.w3.org/1999/xlink" x="0px" y="0px"
	 width="500px" height="300px" viewBox="0 0 500 300" enable-background="new 0 0 500 300" xml:space="preserve">
<g>
	<g>
		<g>
			<g>
				<path fill="#EC2127" d="M464.255,132.606c0-5.236,4.061-9.473,9.017-9.473c4.984,0,9.001,4.237,9.001,9.473
					c0,5.244-4.017,9.482-9.001,9.482C468.315,142.088,464.255,137.85,464.255,132.606L464.255,132.606z M473.272,139.844
					c3.79,0,6.881-3.251,6.881-7.238c0-3.966-3.091-7.188-6.881-7.188c-3.771,0-6.88,3.222-6.88,7.188
					C466.392,136.592,469.501,139.844,473.272,139.844L473.272,139.844z M472.045,136.759H470.2v-8.347h3.349
					c0.68,0,1.444,0.042,2.029,0.46c0.641,0.47,1.009,1.261,1.009,2.097c0,0.925-0.526,1.791-1.36,2.104l1.444,3.685h-2.054
					l-1.221-3.271h-1.352V136.759L472.045,136.759z M472.045,132.068h1.029c0.379,0,0.817,0.012,1.133-0.173
					c0.313-0.203,0.454-0.608,0.454-0.966c0-0.313-0.184-0.691-0.454-0.839c-0.274-0.187-0.829-0.145-1.153-0.145h-1.009V132.068
					L472.045,132.068z"/>
			</g>
			<path fill="#EC2127" d="M335.339,69.603l-2.47,16.067c-5.359-2.853-9.299-3.971-13.507-3.971
				c-11.229,0-19.172,11.417-19.172,27.714c0,11.258,5.331,18.041,14.1,18.041c3.721,0,7.813-1.195,12.815-3.817l-2.636,16.907
				c-5.534,1.592-9.146,2.159-13.331,2.159c-16.267,0-26.384-12.27-26.384-31.965c0-26.493,13.979-44.993,33.977-44.993
				c2.585,0,4.892,0.253,6.767,0.796l6.218,1.63C333.566,68.903,333.981,69.015,335.339,69.603L335.339,69.603z"/>
			<path fill="#EC2127" d="M285.268,80.615c-0.472-0.09-0.996-0.155-1.543-0.155c-4.97,0-7.78,2.629-12.395,9.805l1.34-9.153
				h-13.665l-9.264,60.228h15.16c5.42-36.812,6.806-43.168,14.073-43.168c0.442,0,0.482,0,1.104,0.061
				c1.339-7.257,3.175-12.593,5.706-17.46L285.268,80.615L285.268,80.615z"/>
			<path fill="#EC2127" d="M194.954,140.604c-4.102,1.365-7.343,1.986-10.824,1.986c-7.7,0-11.904-4.691-11.904-13.249
				c0-1.679,0.125-3.49,0.43-5.4l0.933-5.872l0.692-4.797l6.545-41.097h14.996l-1.719,8.937h7.718l-2.119,14.64h-7.7l-3.985,25.137
				c-0.137,1.109-0.252,1.928-0.252,2.495c0,3.084,1.573,4.463,5.14,4.463c1.74,0,3.051-0.182,4.06-0.563L194.954,140.604
				L194.954,140.604z"/>
			<path fill="#EC2127" d="M135.487,100.157c0,7.601,3.502,12.858,11.433,16.787c6.073,3.02,7.038,3.9,7.038,6.643
				c0,3.741-2.695,5.475-8.632,5.475c-4.477,0-8.664-0.748-13.487-2.411l-2.087,13.893l0.683,0.145l2.769,0.587
				c0.891,0.189,2.203,0.358,3.933,0.546c3.598,0.335,6.355,0.496,8.307,0.496c15.825,0,23.146-6.389,23.146-20.107
				c0-8.242-3.051-13.117-10.592-16.766c-6.292-2.999-7.007-3.705-7.007-6.501c0-3.268,2.496-4.946,7.343-4.946
				c2.956,0,6.964,0.351,10.79,0.896l2.15-13.908c-3.934-0.67-9.774-1.187-13.235-1.187
				C141.246,79.798,135.424,89.041,135.487,100.157L135.487,100.157z"/>
			<path fill="#EC2127" d="M455.498,141.34H441.22l0.748-5.901c-4.157,4.662-8.425,6.696-13.938,6.696
				c-11.034,0-18.265-9.942-18.265-25.001c0-20.033,11.236-36.947,24.579-36.947c5.862,0,10.294,2.539,14.469,8.245l3.283-21.158
				h14.871L455.498,141.34L455.498,141.34z M433.233,127.159c7.049,0,11.974-8.37,11.974-20.29c0-7.655-2.812-11.824-8.024-11.824
				c-6.835,0-11.693,8.403-11.693,20.255C425.489,123.188,428.103,127.159,433.233,127.159L433.233,127.159z"/>
			<path fill="#EC2127" d="M242.737,140.075c-5.161,1.621-10.15,2.44-15.5,2.418c-16.823,0-25.613-9.258-25.613-26.96
				c0-20.698,11.181-35.933,26.378-35.933c12.396,0,20.357,8.539,20.357,21.921c0,4.431-0.537,8.751-1.879,14.856h-29.996
				c-0.125,0.917-0.145,1.336-0.145,1.869c0,7.039,4.487,10.584,13.267,10.584c5.381,0,10.225-1.167,15.649-3.831L242.737,140.075
				L242.737,140.075z M234.274,104.21c0.086-1.258,0.106-2.284,0.106-3.047c0-4.923-2.656-7.796-7.143-7.796
				c-4.785,0-8.213,3.838-9.618,10.803L234.274,104.21L234.274,104.21z"/>
			<polygon fill="#EC2127" points="74.92,141.34 59.848,141.34 68.48,84.425 49.193,141.34 38.864,141.34 37.615,84.76 
				28.522,141.34 14.405,141.34 26.183,67.274 47.904,67.274 48.501,113.106 63.161,67.274 86.603,67.274 			"/>
			<path fill="#EC2127" d="M113.757,114.511c-1.595-0.189-2.297-0.259-3.378-0.259c-8.547,0-12.879,3.11-12.879,9.194
				c0,3.75,2.129,6.14,5.422,6.14C109.058,129.586,113.506,123.446,113.757,114.511L113.757,114.511z M124.728,141.34h-12.493
				l0.273-6.253c-3.807,4.987-8.894,7.3-15.806,7.3c-8.202,0-13.801-6.712-13.801-16.409c0-14.703,9.785-23.24,26.513-23.24
				c1.708,0,3.891,0.133,6.135,0.447c0.471-1.992,0.598-2.852,0.598-3.908c0-3.978-2.621-5.487-9.692-5.487
				c-4.267,0-9.166,0.649-12.542,1.72l-2.098,0.608l-1.321,0.39l2.076-13.508c7.532-2.341,12.491-3.243,18.081-3.243
				c12.963,0,19.833,6.117,19.833,17.659c0,2.999-0.22,5.223-1.247,11.948l-3.157,21.34l-0.515,3.854l-0.387,3.069l-0.263,2.097
				L124.728,141.34L124.728,141.34z"/>
			<path fill="#EC2127" d="M361.323,114.511c-1.569-0.189-2.297-0.259-3.35-0.259c-8.583,0-12.928,3.11-12.928,9.194
				c0,3.75,2.153,6.14,5.446,6.14C356.657,129.586,361.055,123.446,361.323,114.511L361.323,114.511z M372.305,141.34h-12.509
				l0.29-6.253c-3.803,4.987-8.901,7.3-15.803,7.3c-8.202,0-13.825-6.712-13.825-16.409c0-14.703,9.776-23.24,26.536-23.24
				c1.699,0,3.902,0.133,6.132,0.447c0.463-1.992,0.599-2.852,0.599-3.908c0-3.978-2.62-5.487-9.689-5.487
				c-4.294,0-9.18,0.649-12.525,1.72l-2.146,0.608l-1.305,0.39l2.099-13.508c7.542-2.341,12.488-3.243,18.041-3.243
				c12.983,0,19.853,6.117,19.853,17.659c0,2.999-0.26,5.223-1.237,11.948l-3.18,21.34l-0.467,3.854l-0.423,3.069l-0.275,2.097
				L372.305,141.34L372.305,141.34z"/>
			<path fill="#EC2127" d="M414.446,80.615c-0.448-0.09-0.941-0.155-1.52-0.155c-4.952,0-7.783,2.629-12.421,9.805l1.346-9.153
				h-13.646l-9.226,60.228h15.107c5.426-36.812,6.851-43.168,14.068-43.168c0.468,0,0.438-0.043,1.056,0.061
				c1.368-7.257,3.212-12.593,5.746-17.46L414.446,80.615L414.446,80.615z"/>
		</g>
		<g>
			<path fill="#F89620" d="M351.143,199.752c0,13.653-4.227,21.693-10.89,21.693c-4.863,0.15-7.813-5.272-7.813-13.378
				c0-9.589,4.309-20.456,11.222-20.456C349.219,187.612,351.143,193.5,351.143,199.752L351.143,199.752z M365.98,200.003
				c0-15.178-7.5-26.99-21.593-26.99c-16.227,0-26.735,14.365-26.735,35.513c0,15.141,6.212,27.519,21.572,27.519
				C354.728,236.044,365.98,225.069,365.98,200.003L365.98,200.003z"/>
			<path fill="#F89620" d="M322.502,162.359l-2.307,16.049c-5.015-2.831-8.665-4.007-12.609-4.007
				c-10.54,0-17.903,11.464-17.903,27.764c0,11.252,4.931,18.06,13.144,18.06c3.503,0,7.335-1.195,11.985-3.821l-2.443,16.897
				c-5.214,1.606-8.617,2.155-12.487,2.155c-15.188,0-24.647-12.274-24.647-31.972c0-26.505,13.057-45.003,31.756-45.003
				c2.422,0,4.564,0.307,6.335,0.796l5.771,1.638C320.876,161.62,321.244,161.746,322.502,162.359L322.502,162.359z"/>
			<path fill="#F89620" d="M229.219,173.387c-0.43-0.118-0.926-0.166-1.448-0.166c-4.575,0-7.257,2.641-11.545,9.792l1.248-9.137
				h-12.756l-8.611,60.234h14.086c5.066-36.849,6.407-43.188,13.163-43.188c0.399,0,0.439,0,1.028,0.068
				c1.27-7.287,2.981-12.623,5.35-17.5L229.219,173.387L229.219,173.387z"/>
			<path fill="#F89620" d="M413.219,233.467h-13.31l0.685-5.88c-3.871,4.637-7.898,6.688-13.051,6.688
				c-10.264,0-17.04-9.958-17.04-25.013c0-19.999,10.518-36.964,22.954-36.964c5.489,0,9.651,2.593,13.5,8.301l3.105-21.178h13.866
				L413.219,233.467L413.219,233.467z M392.395,219.298c6.634,0,11.209-8.361,11.209-20.296c0-7.675-2.613-11.797-7.459-11.797
				c-6.407,0-10.959,8.373-10.959,20.264C385.186,215.319,387.629,219.298,392.395,219.298L392.395,219.298z"/>
			<path fill="#F89620" d="M97.123,233.219c-4.792,1.653-9.46,2.452-14.431,2.452c-15.732,0-23.943-9.278-23.943-26.974
				c0-20.671,10.445-35.917,24.625-35.917c11.611,0,19.014,8.523,19.014,21.904c0,4.425-0.504,8.759-1.708,14.866H72.601
				c-0.085,0.899-0.116,1.346-0.116,1.871c0,7.022,4.207,10.565,12.377,10.565c5.035,0,9.586-1.174,14.631-3.814L97.123,233.219
				L97.123,233.219z M89.245,197.382c0.064-1.273,0.105-2.286,0.105-3.06c0-4.912-2.474-7.785-6.66-7.785
				c-4.499,0-7.7,3.864-8.987,10.782L89.245,197.382L89.245,197.382z"/>
			<path fill="#F89620" d="M264.694,233.219c-4.806,1.653-9.484,2.452-14.438,2.452c-15.764,0-23.964-9.278-23.964-26.974
				c0-20.671,10.457-35.917,24.625-35.917c11.613,0,19.04,8.523,19.04,21.904c0,4.425-0.526,8.759-1.773,14.866h-28.016
				c-0.086,0.899-0.138,1.346-0.138,1.871c0,7.022,4.196,10.565,12.364,10.565c5.037,0,9.602-1.174,14.647-3.814L264.694,233.219
				L264.694,233.219z M256.772,197.382c0.094-1.273,0.146-2.286,0.146-3.06c0-4.912-2.495-7.785-6.662-7.785
				c-4.501,0-7.697,3.864-9,10.782L256.772,197.382L256.772,197.382z"/>
			<path fill="#F89620" d="M461.286,233.219c-4.867,1.653-9.484,2.452-14.474,2.452c-15.729,0-23.964-9.278-23.964-26.974
				c0-20.671,10.479-35.917,24.646-35.917c11.609,0,19.007,8.523,19.007,21.904c0,4.425-0.482,8.759-1.732,14.866h-28.045
				c-0.097,0.899-0.118,1.346-0.118,1.871c0,7.022,4.209,10.565,12.379,10.565c5.04,0,9.584-1.174,14.64-3.814L461.286,233.219
				L461.286,233.219z M453.368,197.382c0.063-1.273,0.102-2.286,0.102-3.06c0-4.912-2.462-7.785-6.657-7.785
				c-4.499,0-7.686,3.864-8.991,10.782L453.368,197.382L453.368,197.382z"/>
			<path fill="#F89620" d="M55.423,176.11c-2.758-1.845-6.492-3.457-11.768-3.457c-5.695,0-10.277,1.181-10.277,7.239
				c0,10.702,20.765,6.706,20.765,29.621c0,20.871-13.706,26.281-26.104,26.281c-5.516,0-11.862-1.823-16.539-3.902l3.367-15.337
				c2.822,2.564,8.516,4.321,13.172,4.321c4.437,0,11.389-1.214,11.389-8.957c0-12.125-20.753-7.615-20.753-28.898
				c0-19.469,12.124-25.3,23.818-25.3c6.586,0,12.774,0.968,16.403,3.379L55.423,176.11L55.423,176.11z"/>
			<path fill="#F89620" d="M138.37,233.197c-2.906,1.398-6.785,2.317-12.512,2.317c-12.313,0-19.948-12.307-19.948-27.289
				c0-19.61,11.044-35.253,27.3-35.253c3.545,0,8.957,1.533,13.225,4.007l-3.115,14.385c-3.022-1.985-6.167-3.247-9.407-3.247
				c-7.532,0-12.911,6.901-12.911,19.271c0,7.12,3.901,12.962,10.067,12.962c3.67,0,6.252-0.775,9.41-2.621L138.37,233.197
				L138.37,233.197z"/>
			<path fill="#F89620" d="M191.064,218.115c-0.724,5.182-1.395,10.211-1.794,15.616h-13.561l1.144-9.735h-0.138
				c-4.247,6.617-8.642,11.122-16.319,11.122c-8.514,0-13.129-8.959-13.129-20.66c0-4.033,0.251-6.309,1.152-12.608l3.839-27.877
				h15.092l-4.049,27.961c-0.409,3.004-0.985,5.983-0.985,9.09c0,3.523,1.604,7.089,5.674,6.87c6.187,0,9.837-7.567,10.876-16.397
				l4.165-27.523h14.609L191.064,218.115L191.064,218.115z"/>
			<g>
				<polygon fill="#F89620" points="475.345,233.003 473.064,233.003 473.064,223.014 469.763,223.014 469.763,220.876 
					478.645,220.876 478.645,223.014 475.345,223.014 				"/>
				<polygon fill="#F89620" points="490.474,233.003 488.344,233.003 488.344,222.865 488.312,222.865 486.277,233.003 
					484.04,233.003 482.052,222.865 482.019,222.865 482.019,233.003 479.892,233.003 479.892,220.876 483.22,220.876 
					485.2,230.436 485.231,230.436 487.175,220.876 490.474,220.876 				"/>
			</g>
		</g>
	</g>
</g>
</svg>
