<?xml version="1.0" encoding="UTF-8" standalone="no"?>
<!-- Creator: CorelDRAW -->

<svg
   xmlns:dc="http://purl.org/dc/elements/1.1/"
   xmlns:cc="http://creativecommons.org/ns#"
   xmlns:rdf="http://www.w3.org/1999/02/22-rdf-syntax-ns#"
   xmlns:svg="http://www.w3.org/2000/svg"
   xmlns="http://www.w3.org/2000/svg"
   xmlns:sodipodi="http://sodipodi.sourceforge.net/DTD/sodipodi-0.dtd"
   xmlns:inkscape="http://www.inkscape.org/namespaces/inkscape"
   xml:space="preserve"
   width="63.499699mm"
   height="35.963699mm"
   style="clip-rule:evenodd;fill-rule:evenodd;image-rendering:optimizeQuality;shape-rendering:geometricPrecision;text-rendering:geometricPrecision"
   viewBox="0 0 63.4997 35.9637"
   id="svg2"
   version="1.1"
   inkscape:version="0.91 r13725"
   sodipodi:docname="Verified by Visa.svg"><metadata
     id="metadata42"><rdf:RDF><cc:Work
         rdf:about=""><dc:format>image/svg+xml</dc:format><dc:type
           rdf:resource="http://purl.org/dc/dcmitype/StillImage" /><dc:title></dc:title></cc:Work></rdf:RDF></metadata><sodipodi:namedview
     pagecolor="#ffffff"
     bordercolor="#666666"
     borderopacity="1"
     objecttolerance="10"
     gridtolerance="10"
     guidetolerance="10"
     inkscape:pageopacity="0"
     inkscape:pageshadow="2"
     inkscape:window-width="1366"
     inkscape:window-height="705"
     id="namedview40"
     showgrid="false"
     fit-margin-top="0"
     fit-margin-left="0"
     fit-margin-right="0"
     fit-margin-bottom="0"
     inkscape:zoom="0.67425133"
     inkscape:cx="256.63363"
     inkscape:cy="128.19187"
     inkscape:window-x="-8"
     inkscape:window-y="-8"
     inkscape:window-maximized="1"
     inkscape:current-layer="svg2" /><defs
     id="defs4"><style
       type="text/css"
       id="style6"><![CDATA[
    .fil0 {fill:#004686}
    .fil1 {fill:#EF9B11}
   ]]></style></defs><g
     id="Layer_x0020_1"
     transform="translate(-76.2,-121.7183)"><metadata
       id="CorelCorpID_0Corel-Layer" /><polygon
       class="fil0"
       points="104.511,142.963 106.199,132.325 108.941,132.325 107.253,142.963 "
       id="polygon10"
       style="fill:#004686" /><path
       class="fil0"
       d="m 96.7007,132.325 4.1974,0 c 2.6705,0 3.3639,1.5378 3.0724,3.3746 -0.2433,1.5337 -1.3457,2.5577 -2.7768,2.9214 l 2.6585,4.3419 -3.4413,0 -1.9939,-4.1773 -0.6628,4.1773 -2.7414,0 1.6879,-10.6379 z m 2.4057,2.1152 -0.4234,2.6688 0.7926,0 c 0.7705,0 1.4997,-0.6004 1.6206,-1.3344 l 0,0 c 0.1209,-0.734 -0.4105,-1.3344 -1.1809,-1.3344 l -0.8089,0 z"
       id="path12"
       inkscape:connector-curvature="0"
       style="fill:#004686" /><polygon
       class="fil0"
       points="117.031,142.963 118.718,132.325 121.46,132.325 119.772,142.963 "
       id="polygon14"
       style="fill:#004686" /><polygon
       class="fil0"
       points="125.917,134.638 125.629,136.456 128.744,136.456 128.377,138.769 125.262,138.769 124.963,140.65 128.24,140.65 127.873,142.963 121.855,142.963 123.543,132.325 129.561,132.325 129.194,134.638 "
       id="polygon16"
       style="fill:#004686" /><polygon
       class="fil0"
       points="91.4264,134.638 91.1379,136.456 94.2535,136.456 93.8865,138.769 90.7709,138.769 90.4725,140.65 93.7498,140.65 93.3828,142.963 87.364,142.963 89.0519,132.325 95.0707,132.325 94.7037,134.638 "
       id="polygon18"
       style="fill:#004686" /><polygon
       class="fil0"
       points="113.391,134.638 113.098,136.456 116.142,136.456 115.773,138.769 112.731,138.769 112.065,142.963 109.328,142.963 111.016,132.325 117.103,132.325 116.736,134.638 "
       id="polygon20"
       style="fill:#004686" /><path
       class="fil0"
       d="m 131.174,132.325 3.5727,0 c 4.2565,0 5.2262,3.219 4.8926,5.3214 -0.4766,3.0034 -3.1539,5.3165 -6.5805,5.3165 l -3.5728,0 1.688,-10.6379 z m 2.3744,2.3131 c 0.1984,0 0.3865,0 0.5664,0 2.0951,0 2.9146,1.478 2.6885,2.9036 -0.3035,1.9128 -1.6788,3.1081 -3.4757,3.1081 -0.2399,0 -0.4706,0 -0.7331,0 l 0.9539,-6.0117 z"
       id="path22"
       inkscape:connector-curvature="0"
       style="fill:#004686" /><path
       class="fil0"
       d="m 76.2,130.876 5.0714,0 0.6025,7.7281 c 3.3553,-5.808 6.7655,-11.3966 10.2006,-16.8858 l 1.654,0 c -3.6367,7.0132 -7.2273,14.072 -10.705,21.2446 l -3.7232,0 -0.9074,-8.5227 C 78.1677,132.325 77.7402,131.4268 76.2,131.1993 l 0,-0.3233 z"
       id="path24"
       inkscape:connector-curvature="0"
       style="fill:#004686" /><polygon
       class="fil1"
       points="83.1392,133.129 87.0643,126.484 87.0643,126.151 78.1193,126.151 78.1203,126.481 82.4441,128.314 82.8196,133.129 "
       id="polygon26"
       style="fill:#ef9b11" /><path
       class="fil0"
       d="m 98.1103,150.582 c 0.6556,0 1.1011,0.6006 0.9949,1.3414 -0.106,0.7406 -0.7237,1.3412 -1.3793,1.3412 -0.6554,0 -1.101,-0.6006 -0.9948,-1.3412 0.1061,-0.7408 0.7238,-1.3414 1.3792,-1.3414 z m -2.2146,-5.118 1.7745,0 -0.5979,4.1927 c 0.5065,-0.4888 1.1266,-0.7914 1.8189,-0.7914 1.4237,0 2.3574,1.3717 2.1057,3.0644 -0.2517,1.6927 -1.5936,3.0662 -3.0173,3.0662 -0.7018,0 -1.205,-0.3159 -1.5477,-0.8481 l -0.0947,0.6648 -1.7745,0 1.333,-9.3486 z"
       id="path28"
       inkscape:connector-curvature="0"
       style="fill:#004686" /><polygon
       class="fil0"
       points="106.08,149.008 108.137,149.008 102.738,157.682 100.68,157.682 102.958,154.024 101.149,149.008 103.278,149.008 104.23,151.979 "
       id="polygon30"
       style="fill:#004686" /><polygon
       class="fil0"
       points="120.405,154.81 117.853,154.81 120.713,145.462 123.265,145.462 "
       id="polygon32"
       style="fill:#004686" /><path
       class="fil0"
       d="m 116.713,145.464 -3.3854,6.0531 -0.0346,0 -0.2549,-6.0531 -4.3814,0 -0.0445,0.4058 c 1.4324,0 1.7363,0.2192 1.9166,1.3437 l 0.8589,7.5971 2.6435,0 5.3455,-9.3466 -2.6637,0 z"
       id="path34"
       inkscape:connector-curvature="0"
       style="fill:#004686" /><path
       class="fil0"
       d="m 133.275,153.469 -0.6279,1.3418 -2.7697,0 5.0223,-9.3314 3.4005,0 0.8508,9.3314 -1.8893,0 7e-4,0.0155 -0.7916,0 -0.0613,-1.3573 -3.1345,0 z m 0.8953,-1.8096 2.158,0 -0.1968,-4.3619 -1.9612,4.3619 z"
       id="path36"
       inkscape:connector-curvature="0"
       style="fill:#004686" /><path
       class="fil0"
       d="m 125.944,155.077 c -1.8014,0 -2.997,-0.5668 -3.8503,-1.0722 l 1.215,-1.8404 c 0.7664,0.4252 1.3683,0.9154 2.7524,0.9154 0.4453,0 0.8737,-0.1145 1.1173,-0.533 0.3548,-0.6081 -0.0816,-0.9351 -1.0782,-1.4949 l -0.492,-0.3176 c -1.4777,-1.0009 -2.1172,-1.9515 -1.4219,-3.6114 0.4458,-1.0616 1.6191,-1.8665 3.556,-1.8665 1.3357,0 2.588,0.5725 3.3174,1.1323 l -1.3972,1.6249 c -0.7123,-0.5708 -1.3021,-0.8595 -1.9782,-0.8595 -0.5381,0 -0.9474,0.2057 -1.0884,0.4836 -0.2659,0.5224 0.086,0.8776 0.8626,1.3562 l 0.5855,0.3695 c 1.7937,1.1212 2.2209,2.2974 1.7716,3.3976 -0.7736,1.8927 -2.2878,2.316 -3.8716,2.316 z"
       id="path38"
       inkscape:connector-curvature="0"
       style="fill:#004686" /></g></svg>